<svg width="21" height="21" viewBox="0 0 21 21" fill="none" xmlns="http://www.w3.org/2000/svg">
<g clip-path="url(#clip0_492_4768)">
<path d="M5.6875 14C6.41237 14 7 13.4124 7 12.6875C7 11.9626 6.41237 11.375 5.6875 11.375C4.96263 11.375 4.375 11.9626 4.375 12.6875C4.375 13.4124 4.96263 14 5.6875 14Z" fill="#DF382D"/>
<path d="M16.1875 2.625H4.8125C3.53657 2.62639 2.3133 3.13387 1.41108 4.03608C0.508866 4.9383 0.00138965 6.16157 0 7.4375L0 13.5625C0.00138965 14.8384 0.508866 16.0617 1.41108 16.9639C2.3133 17.8661 3.53657 18.3736 4.8125 18.375H16.1875C17.4634 18.3736 18.6867 17.8661 19.5889 16.9639C20.4911 16.0617 20.9986 14.8384 21 13.5625V7.4375C20.9986 6.16157 20.4911 4.9383 19.5889 4.03608C18.6867 3.13387 17.4634 2.62639 16.1875 2.625ZM4.8125 5.25H16.1875C16.6916 5.2501 17.1803 5.42432 17.5707 5.74321C17.9612 6.06209 18.2295 6.50605 18.3304 7H2.66963C2.77045 6.50605 3.0388 6.06209 3.42927 5.74321C3.81974 5.42432 4.30836 5.2501 4.8125 5.25ZM16.1875 15.75H4.8125C4.23234 15.75 3.67594 15.5195 3.2657 15.1093C2.85547 14.6991 2.625 14.1427 2.625 13.5625V9.625H18.375V13.5625C18.375 14.1427 18.1445 14.6991 17.7343 15.1093C17.3241 15.5195 16.7677 15.75 16.1875 15.75Z" fill="#DF382D"/>
</g>
<defs>
<clipPath id="clip0_492_4768">
<rect width="21" height="21" fill="white"/>
</clipPath>
</defs>
</svg>
