<svg width="19" height="19" viewBox="0 0 19 19" fill="none" xmlns="http://www.w3.org/2000/svg">
<path d="M6.73684 16.625H2.87073C2.68071 16.6246 2.52676 16.4799 2.52632 16.3012V2.69878C2.5268 2.52013 2.68071 2.37541 2.87073 2.375H6.73684C7.43446 2.375 8 1.84333 8 1.1875C8 0.531666 7.43446 0 6.73684 0H2.87073C1.28602 0.00174414 0.00185527 1.20902 0 2.69878V16.3012C0.00185527 17.791 1.28602 18.9983 2.87073 19H6.73684C7.43446 19 8 18.4683 8 17.8125C8 17.1567 7.43446 16.625 6.73684 16.625Z" fill="#DF382D"/>
<path d="M17.9616 7.1742L14.8964 4.32279C14.4337 3.89225 13.6838 3.89242 13.2213 4.32317C12.7588 4.75392 12.759 5.45213 13.2217 5.88267L15.9158 8.39005L5.18439 8.41062C4.53028 8.41062 4 8.90429 4 9.51325C4 10.1222 4.53028 10.6159 5.18439 10.6159L15.9592 10.5975L13.2217 13.1461C12.776 13.5918 12.8028 14.2895 13.2816 14.7044C13.7366 15.0988 14.4418 15.0985 14.8964 14.7037L17.9593 11.8523C19.3469 10.5605 19.3469 8.46606 17.9593 7.17427L17.9593 7.17423L17.9616 7.1742Z" fill="#DF382D"/>
</svg>
