<svg width="24" height="24" viewBox="0 0 24 24" fill="none" xmlns="http://www.w3.org/2000/svg">
<g clip-path="url(#clip0_432_2)">
<path d="M18.5 2H5.5C2.467 2 0 4.467 0 7.5V16.5C0 19.533 2.467 22 5.5 22H18.5C21.533 22 24 19.533 24 16.5V7.5C24 4.467 21.533 2 18.5 2ZM21 16.5C21 17.878 19.878 19 18.5 19H5.5C4.122 19 3 17.878 3 16.5V7.5C3 6.122 4.122 5 5.5 5H18.5C19.878 5 21 6.122 21 7.5V16.5ZM19 8.5V10.5C19 11.328 18.328 12 17.5 12H13.5C12.672 12 12 11.328 12 10.5V8.5C12 7.672 12.672 7 13.5 7H17.5C18.328 7 19 7.672 19 8.5ZM5 10.5C5 9.671 5.671 9 6.5 9H8.5C9.329 9 10 9.671 10 10.5C10 11.329 9.329 12 8.5 12H6.5C5.671 12 5 11.329 5 10.5ZM19 15.5C19 16.329 18.329 17 17.5 17H6.5C5.671 17 5 16.329 5 15.5C5 14.671 5.671 14 6.5 14H17.5C18.329 14 19 14.671 19 15.5Z" fill="#DF382D"/>
</g>
<defs>
<clipPath id="clip0_432_2">
<rect width="24" height="24" fill="white"/>
</clipPath>
</defs>
</svg>
