<svg width="29" height="29" viewBox="0 0 29 29" fill="none" xmlns="http://www.w3.org/2000/svg">
<g clip-path="url(#clip0_403_315)">
<path d="M7.85449 19.3333C8.85551 19.3333 9.66699 18.5218 9.66699 17.5208C9.66699 16.5198 8.85551 15.7083 7.85449 15.7083C6.85348 15.7083 6.04199 16.5198 6.04199 17.5208C6.04199 18.5218 6.85348 19.3333 7.85449 19.3333Z" fill="#DF382D"/>
<path d="M22.3542 3.625H6.64583C4.88384 3.62692 3.19456 4.32772 1.94864 5.57364C0.702719 6.81956 0.00191904 8.50884 0 10.2708L0 18.7292C0.00191904 20.4912 0.702719 22.1804 1.94864 23.4264C3.19456 24.6723 4.88384 25.3731 6.64583 25.375H22.3542C24.1162 25.3731 25.8054 24.6723 27.0514 23.4264C28.2973 22.1804 28.9981 20.4912 29 18.7292V10.2708C28.9981 8.50884 28.2973 6.81956 27.0514 5.57364C25.8054 4.32772 24.1162 3.62692 22.3542 3.625ZM6.64583 7.25H22.3542C23.0504 7.25014 23.7251 7.49073 24.2643 7.93109C24.8036 8.37145 25.1741 8.98455 25.3134 9.66667H3.68663C3.82586 8.98455 4.19643 8.37145 4.73565 7.93109C5.27487 7.49073 5.94965 7.25014 6.64583 7.25ZM22.3542 21.75H6.64583C5.84466 21.75 5.0763 21.4317 4.50978 20.8652C3.94327 20.2987 3.625 19.5303 3.625 18.7292V13.2917H25.375V18.7292C25.375 19.5303 25.0567 20.2987 24.4902 20.8652C23.9237 21.4317 23.1553 21.75 22.3542 21.75Z" fill="white"/>
</g>
<defs>
<clipPath id="clip0_403_315">
<rect width="29" height="29" fill="white"/>
</clipPath>
</defs>
</svg>
