<svg width="22" height="22" viewBox="0 0 22 22" fill="none" xmlns="http://www.w3.org/2000/svg">
<path d="M16.9583 0.916656H5.04167C3.70498 0.918112 2.42346 1.44975 1.47828 2.39493C0.533097 3.34011 0.00145582 4.62164 0 5.95832L0 16.0417C0.00145582 17.3783 0.533097 18.6599 1.47828 19.605C2.42346 20.5502 3.70498 21.0819 5.04167 21.0833H16.9583C18.295 21.0819 19.5765 20.5502 20.5217 19.605C21.4669 18.6599 21.9985 17.3783 22 16.0417V5.95832C21.9985 4.62164 21.4669 3.34011 20.5217 2.39493C19.5765 1.44975 18.295 0.918112 16.9583 0.916656ZM16.9583 3.66666C17.5143 3.66851 18.0502 3.87433 18.4644 4.24507L12.5061 10.2034C12.1014 10.5899 11.5633 10.8056 11.0037 10.8056C10.444 10.8056 9.90594 10.5899 9.50125 10.2034L3.54292 4.24507C3.95528 3.876 4.48827 3.6703 5.04167 3.66666H16.9583ZM16.9583 18.3333H5.04167C4.43388 18.3333 3.85098 18.0919 3.42121 17.6621C2.99144 17.2323 2.75 16.6494 2.75 16.0417V7.34891L7.55242 12.1513C8.00503 12.6041 8.54242 12.9633 9.13389 13.2084C9.72536 13.4535 10.3593 13.5796 10.9995 13.5796C11.6398 13.5796 12.2737 13.4535 12.8652 13.2084C13.4567 12.9633 13.9941 12.6041 14.4467 12.1513L19.25 7.34891V16.0417C19.25 16.6494 19.0086 17.2323 18.5788 17.6621C18.149 18.0919 17.5661 18.3333 16.9583 18.3333Z" fill="#DF382D"/>
</svg>
