<svg width="22" height="22" viewBox="0 0 22 22" fill="none" xmlns="http://www.w3.org/2000/svg">
<g clip-path="url(#clip0_484_12043)">
<path d="M17.4008 7.30008V6.52541C17.4008 4.83145 16.7254 3.20686 15.5232 2.00905C14.3211 0.811231 12.6906 0.138306 10.9905 0.138306C9.2904 0.138306 7.65993 0.811231 6.45778 2.00905C5.25562 3.20686 4.58026 4.83145 4.58026 6.52541V7.30008H1.83301V19.1618C1.83301 19.8878 2.12245 20.5841 2.63766 21.0974C3.15287 21.6108 3.85164 21.8992 4.58026 21.8992H17.4008C18.1294 21.8992 18.8281 21.6108 19.3434 21.0974C19.8586 20.5841 20.148 19.8878 20.148 19.1618V7.30008H17.4008ZM7.32751 6.52541C7.32751 5.55743 7.71343 4.6291 8.40037 3.94463C9.08732 3.26017 10.019 2.87564 10.9905 2.87564C11.962 2.87564 12.8937 3.26017 13.5806 3.94463C14.2676 4.6291 14.6535 5.55743 14.6535 6.52541V7.30008H7.32751V6.52541ZM4.58026 19.1618V10.0374H17.4008V19.1618H4.58026Z" fill="#DF382D"/>
<path d="M12.8332 12.8331H9.1665V15.5831H12.8332V12.8331Z" fill="#DF382D"/>
</g>
<defs>
<clipPath id="clip0_484_12043">
<rect width="22" height="22" fill="white" transform="translate(0 -0.000244141)"/>
</clipPath>
</defs>
</svg>
