<svg width="22" height="22" viewBox="0 0 22 22" fill="none" xmlns="http://www.w3.org/2000/svg">
<g filter="url(#filter0_d_484_12015)">
<path d="M16.9583 0.916626H5.04167C3.70498 0.918082 2.42346 1.44972 1.47828 2.3949C0.533097 3.34008 0.00145582 4.62161 0 5.95829L0 16.0416C0.00145582 17.3783 0.533097 18.6598 1.47828 19.605C2.42346 20.5502 3.70498 21.0818 5.04167 21.0833H16.9583C18.295 21.0818 19.5765 20.5502 20.5217 19.605C21.4669 18.6598 21.9985 17.3783 22 16.0416V5.95829C21.9985 4.62161 21.4669 3.34008 20.5217 2.3949C19.5765 1.44972 18.295 0.918082 16.9583 0.916626ZM16.9583 3.66663C17.5143 3.66848 18.0502 3.8743 18.4644 4.24504L12.5061 10.2034C12.1014 10.5899 11.5633 10.8056 11.0037 10.8056C10.444 10.8056 9.90594 10.5899 9.50125 10.2034L3.54292 4.24504C3.95528 3.87597 4.48827 3.67027 5.04167 3.66663H16.9583ZM16.9583 18.3333H5.04167C4.43388 18.3333 3.85098 18.0918 3.42121 17.6621C2.99144 17.2323 2.75 16.6494 2.75 16.0416V7.34888L7.55242 12.1513C8.00503 12.6041 8.54242 12.9633 9.13389 13.2084C9.72536 13.4534 10.3593 13.5796 10.9995 13.5796C11.6398 13.5796 12.2737 13.4534 12.8652 13.2084C13.4567 12.9633 13.9941 12.6041 14.4467 12.1513L19.25 7.34888V16.0416C19.25 16.6494 19.0086 17.2323 18.5788 17.6621C18.149 18.0918 17.5661 18.3333 16.9583 18.3333Z" fill="#DF382D"/>
</g>
<defs>
<filter id="filter0_d_484_12015" x="-4" y="0.916626" width="30" height="28.1666" filterUnits="userSpaceOnUse" color-interpolation-filters="sRGB">
<feFlood flood-opacity="0" result="BackgroundImageFix"/>
<feColorMatrix in="SourceAlpha" type="matrix" values="0 0 0 0 0 0 0 0 0 0 0 0 0 0 0 0 0 0 127 0" result="hardAlpha"/>
<feOffset dy="4"/>
<feGaussianBlur stdDeviation="2"/>
<feComposite in2="hardAlpha" operator="out"/>
<feColorMatrix type="matrix" values="0 0 0 0 0 0 0 0 0 0 0 0 0 0 0 0 0 0 0.25 0"/>
<feBlend mode="normal" in2="BackgroundImageFix" result="effect1_dropShadow_484_12015"/>
<feBlend mode="normal" in="SourceGraphic" in2="effect1_dropShadow_484_12015" result="shape"/>
</filter>
</defs>
</svg>
