<svg width="24" height="24" viewBox="0 0 24 24" fill="none" xmlns="http://www.w3.org/2000/svg">
<path d="M16.5 0C12.224 0 9 1.935 9 4.5C9 4.7 9.02 4.897 9.058 5.089C8.558 5.03 8.037 5 7.5 5C3.224 5 0 6.935 0 9.5V19.5C0 22.065 3.224 24 7.5 24C11.776 24 15 22.065 15 19.5V18.915C15.491 18.971 15.994 19 16.5 19C20.776 19 24 17.065 24 14.5V4.5C24 1.935 20.776 0 16.5 0ZM21 9.5C21 9.874 19.404 11 16.5 11C15.987 11 15.482 10.963 15 10.891V9.5C15 9.3 14.98 9.103 14.942 8.911C15.442 8.97 15.963 9 16.5 9C18.216 9 19.763 8.688 21 8.149V9.5ZM3 13.149C4.237 13.688 5.784 14 7.5 14C9.216 14 10.763 13.688 12 13.149V14.5C12 14.874 10.404 16 7.5 16C4.596 16 3 14.874 3 14.5V13.149ZM16.5 3C19.404 3 21 4.126 21 4.5C21 4.874 19.404 6 16.5 6C13.596 6 12 4.874 12 4.5C12 4.126 13.596 3 16.5 3ZM7.5 8C10.404 8 12 9.126 12 9.5C12 9.874 10.404 11 7.5 11C4.596 11 3 9.874 3 9.5C3 9.126 4.596 8 7.5 8ZM7.5 21C4.596 21 3 19.874 3 19.5V18.149C4.237 18.688 5.784 19 7.5 19C9.216 19 10.763 18.688 12 18.149V19.5C12 19.874 10.404 21 7.5 21ZM16.5 16C15.987 16 15.482 15.963 15 15.891V13.915C15.491 13.971 15.994 14 16.5 14C18.216 14 19.763 13.688 21 13.149V14.5C21 14.874 19.404 16 16.5 16Z" fill="#DF382D"/>
</svg>
