<svg width="22" height="23" viewBox="0 0 22 23" fill="none" xmlns="http://www.w3.org/2000/svg">
<path d="M20.922 1.07966C20.2214 0.409106 19.2896 0.0349121 18.3205 0.0349121C17.3514 0.0349121 16.4197 0.409106 15.719 1.07966L1.47676 15.3445C1.00735 15.8121 0.63514 16.3683 0.381663 16.9808C0.128185 17.5934 -0.00153136 18.2502 1.36405e-05 18.9133V20.6577C1.36405e-05 21.023 0.144879 21.3733 0.402742 21.6315C0.660604 21.8898 1.01034 22.0349 1.37501 22.0349H3.11668C3.77902 22.0367 4.43514 21.9069 5.04706 21.653C5.65897 21.3991 6.21454 21.0262 6.6816 20.5558L20.922 6.29092C21.611 5.59933 21.9979 4.66226 21.9979 3.68529C21.9979 2.70832 21.611 1.77124 20.922 1.07966ZM4.73551 18.6085C4.30503 19.0368 3.7235 19.2783 3.11668 19.2805H2.75001V18.9133C2.7519 18.3049 2.99296 17.7217 3.42101 17.29L14.025 6.67194L15.3386 7.98761L4.73551 18.6085ZM18.975 4.34358L17.2828 6.04119L15.9683 4.7246L17.6642 3.02975C17.8411 2.86043 18.0763 2.76594 18.321 2.76594C18.5656 2.76594 18.8009 2.86043 18.9778 3.02975C19.1506 3.20471 19.2474 3.44107 19.2469 3.68723C19.2464 3.93339 19.1486 4.16935 18.975 4.34358Z" fill="#DF382D"/>
</svg>
