<svg width="38" height="38" viewBox="0 0 38 38" fill="none" xmlns="http://www.w3.org/2000/svg">
<g filter="url(#filter0_dd_523_15647)">
<path d="M29.625 7.75H26.5V7.5C26.5 5.51088 25.7098 3.60322 24.3033 2.1967C22.8968 0.790176 20.9891 0 19 0C17.0109 0 15.1032 0.790176 13.6967 2.1967C12.2902 3.60322 11.5 5.51088 11.5 7.5V7.75H8.375C7.21901 7.76395 6.1143 8.22936 5.29683 9.04683C4.47936 9.8643 4.01395 10.969 4 12.125V23.125C4.01599 24.9434 4.74545 26.6828 6.03131 27.9687C7.31718 29.2546 9.05659 29.984 10.875 30H27.125C28.9434 29.984 30.6828 29.2546 31.9687 27.9687C33.2546 26.6828 33.984 24.9434 34 23.125V12.125C33.9861 10.969 33.5206 9.8643 32.7032 9.04683C31.8857 8.22936 30.781 7.76395 29.625 7.75ZM15.25 7.5C15.25 6.50544 15.6451 5.55161 16.3483 4.84835C17.0516 4.14509 18.0054 3.75 19 3.75C19.9946 3.75 20.9484 4.14509 21.6517 4.84835C22.3549 5.55161 22.75 6.50544 22.75 7.5V7.75H15.25V7.5ZM30.25 23.125C30.254 23.5365 30.1759 23.9447 30.0203 24.3256C29.8647 24.7066 29.6346 25.0527 29.3436 25.3436C29.0527 25.6346 28.7066 25.8647 28.3256 26.0203C27.9447 26.1759 27.5365 26.254 27.125 26.25H10.875C10.4635 26.254 10.0553 26.1759 9.67439 26.0203C9.29344 25.8647 8.94734 25.6346 8.65636 25.3436C8.36537 25.0527 8.13534 24.7066 7.97971 24.3256C7.82408 23.9447 7.74599 23.5365 7.75 23.125V12.125C7.74489 12.0416 7.75755 11.958 7.78715 11.8799C7.81675 11.8018 7.86261 11.7308 7.9217 11.6717C7.98079 11.6126 8.05176 11.5667 8.1299 11.5371C8.20805 11.5075 8.29159 11.4949 8.375 11.5H11.5V13.125C11.5 13.6223 11.6975 14.0992 12.0492 14.4508C12.4008 14.8025 12.8777 15 13.375 15C13.8723 15 14.3492 14.8025 14.7008 14.4508C15.0525 14.0992 15.25 13.6223 15.25 13.125V11.5H22.75V13.125C22.75 13.6223 22.9475 14.0992 23.2992 14.4508C23.6508 14.8025 24.1277 15 24.625 15C25.1223 15 25.5992 14.8025 25.9508 14.4508C26.3025 14.0992 26.5 13.6223 26.5 13.125V11.5H29.625C29.7084 11.4949 29.792 11.5075 29.8701 11.5371C29.9482 11.5667 30.0192 11.6126 30.0783 11.6717C30.1374 11.7308 30.1833 11.8018 30.2129 11.8799C30.2425 11.958 30.2551 12.0416 30.25 12.125V23.125Z" fill="white"/>
</g>
<defs>
<filter id="filter0_dd_523_15647" x="0" y="0" width="38" height="38" filterUnits="userSpaceOnUse" color-interpolation-filters="sRGB">
<feFlood flood-opacity="0" result="BackgroundImageFix"/>
<feColorMatrix in="SourceAlpha" type="matrix" values="0 0 0 0 0 0 0 0 0 0 0 0 0 0 0 0 0 0 127 0" result="hardAlpha"/>
<feOffset dy="4"/>
<feGaussianBlur stdDeviation="2"/>
<feComposite in2="hardAlpha" operator="out"/>
<feColorMatrix type="matrix" values="0 0 0 0 0 0 0 0 0 0 0 0 0 0 0 0 0 0 0.25 0"/>
<feBlend mode="normal" in2="BackgroundImageFix" result="effect1_dropShadow_523_15647"/>
<feColorMatrix in="SourceAlpha" type="matrix" values="0 0 0 0 0 0 0 0 0 0 0 0 0 0 0 0 0 0 127 0" result="hardAlpha"/>
<feOffset dy="4"/>
<feGaussianBlur stdDeviation="2"/>
<feComposite in2="hardAlpha" operator="out"/>
<feColorMatrix type="matrix" values="0 0 0 0 0 0 0 0 0 0 0 0 0 0 0 0 0 0 0.25 0"/>
<feBlend mode="normal" in2="effect1_dropShadow_523_15647" result="effect2_dropShadow_523_15647"/>
<feBlend mode="normal" in="SourceGraphic" in2="effect2_dropShadow_523_15647" result="shape"/>
</filter>
</defs>
</svg>
