<svg width="18" height="24" viewBox="0 0 18 24" fill="none" xmlns="http://www.w3.org/2000/svg">
<path d="M9.82163 15.213L9.52763 14.978C9.37378 14.8562 9.18333 14.79 8.98713 14.79C8.79094 14.79 8.60049 14.8562 8.44663 14.978L8.14663 15.216C7.23456 15.8841 6.51108 16.7771 6.04663 17.808C5.99383 17.9398 5.97417 18.0827 5.98936 18.2239C6.00455 18.3651 6.05414 18.5005 6.13378 18.6181C6.21342 18.7358 6.32068 18.8321 6.44618 18.8987C6.57167 18.9652 6.71158 19 6.85363 19H11.1166C11.2584 18.9992 11.3979 18.9638 11.5228 18.8967C11.6478 18.8296 11.7544 18.7329 11.8333 18.6151C11.9122 18.4973 11.9611 18.362 11.9756 18.2209C11.9901 18.0799 11.9699 17.9374 11.9166 17.806C11.4521 16.7764 10.7307 15.8835 9.82163 15.213Z" fill="#DF382D"/>
<path d="M14.0092 12C16.0792 10.1695 17.4683 7.69191 17.9502 4.971C18.0414 4.35817 17.9993 3.73287 17.8267 3.13781C17.6541 2.54275 17.3552 1.99195 16.9502 1.523C16.5391 1.04508 16.0296 0.661574 15.4566 0.39872C14.8836 0.135865 14.2606 -0.000141745 13.6302 1.10853e-07H4.36622C3.73592 0.00025813 3.1131 0.136549 2.5403 0.399565C1.9675 0.66258 1.45821 1.04612 1.04722 1.524C0.641932 1.99333 0.342767 2.54464 0.170179 3.14024C-0.00240973 3.73585 -0.0443515 4.36169 0.0472207 4.975C0.526874 7.69491 1.91522 10.1716 3.98522 12C1.91596 13.8287 0.528338 16.3054 0.0492206 19.025C-0.0423516 19.6383 -0.000409633 20.2642 0.172179 20.8598C0.344767 21.4554 0.643932 22.0067 1.04922 22.476C1.45999 22.9536 1.96896 23.337 2.54139 23.6C3.11383 23.863 3.73626 23.9995 4.36622 24H13.6302C14.2603 23.9999 14.8829 23.8637 15.4556 23.6009C16.0282 23.338 16.5373 22.9547 16.9482 22.477C17.3534 22.0084 17.6525 21.4578 17.8251 20.8628C17.9977 20.2679 18.0397 19.6427 17.9482 19.03C17.4671 16.309 16.0787 13.8311 14.0092 12ZM14.6752 20.519C14.5458 20.6696 14.3855 20.7905 14.2052 20.8735C14.0249 20.9565 13.8287 20.9996 13.6302 21H4.36622C4.16762 20.9998 3.97138 20.9569 3.79088 20.8741C3.61037 20.7912 3.44984 20.6705 3.32022 20.52C3.1961 20.378 3.10435 20.2108 3.05134 20.0298C2.99833 19.8488 2.98532 19.6585 3.01322 19.472C3.35022 17.228 4.75922 15.109 7.20122 13.178C7.37895 13.0376 7.52257 12.8588 7.62131 12.6549C7.72005 12.4511 7.77134 12.2275 7.77134 12.001C7.77134 11.7745 7.72005 11.5509 7.62131 11.3471C7.52257 11.1432 7.37895 10.9644 7.20122 10.824C4.75922 8.892 3.35022 6.773 3.01322 4.529C2.98532 4.3425 2.99833 4.15217 3.05134 3.9712C3.10435 3.79023 3.1961 3.62297 3.32022 3.481C3.44975 3.33035 3.61024 3.2094 3.79075 3.12639C3.97126 3.04339 4.16754 3.00028 4.36622 3H13.6302C13.8287 3.00035 14.0249 3.0435 14.2052 3.12651C14.3855 3.20952 14.5458 3.33043 14.6752 3.481C14.7995 3.62236 14.8915 3.78902 14.945 3.96944C14.9986 4.14986 15.0123 4.33976 14.9852 4.526C14.6502 6.761 13.2402 8.88 10.7942 10.826C10.6176 10.9665 10.4749 11.145 10.3769 11.3483C10.2788 11.5515 10.2279 11.7743 10.2279 12C10.2279 12.2257 10.2788 12.4485 10.3769 12.6517C10.4749 12.855 10.6176 13.0335 10.7942 13.174C13.2402 15.12 14.6502 17.239 14.9852 19.474C15.0127 19.6602 14.9992 19.8502 14.9456 20.0307C14.8921 20.2112 14.7998 20.3779 14.6752 20.519Z" fill="#DF382D"/>
</svg>
