<svg width="22" height="22" viewBox="0 0 22 22" fill="none" xmlns="http://www.w3.org/2000/svg">
<g clip-path="url(#clip0_484_12034)">
<path d="M19.25 22H16.5V17.4167C16.5 16.9305 16.3068 16.4642 15.963 16.1203C15.6192 15.7765 15.1529 15.5834 14.6667 15.5834H7.33333C6.8471 15.5834 6.38079 15.7765 6.03697 16.1203C5.69315 16.4642 5.5 16.9305 5.5 17.4167V22H2.75V17.4167C2.75146 16.2016 3.23481 15.0366 4.09403 14.1774C4.95326 13.3182 6.1182 12.8348 7.33333 12.8334H14.6667C15.8818 12.8348 17.0467 13.3182 17.906 14.1774C18.7652 15.0366 19.2485 16.2016 19.25 17.4167V22Z" fill="#DF382D"/>
<path d="M10.9995 11C9.91172 11 8.84835 10.6774 7.94388 10.0731C7.03941 9.46874 6.33446 8.60976 5.91818 7.60476C5.50189 6.59977 5.39298 5.4939 5.6052 4.42701C5.81741 3.36011 6.34124 2.3801 7.11043 1.61092C7.87962 0.841726 8.85962 0.317902 9.92652 0.105683C10.9934 -0.106535 12.0993 0.00238307 13.1043 0.418665C14.1093 0.834947 14.9682 1.5399 15.5726 2.44437C16.1769 3.34884 16.4995 4.41221 16.4995 5.5C16.4981 6.95825 15.9181 8.35635 14.887 9.38748C13.8559 10.4186 12.4578 10.9985 10.9995 11ZM10.9995 2.75C10.4556 2.75 9.92393 2.91129 9.4717 3.21346C9.01946 3.51564 8.66699 3.94513 8.45885 4.44762C8.2507 4.95012 8.19625 5.50305 8.30235 6.0365C8.40846 6.56995 8.67038 7.05995 9.05497 7.44455C9.43956 7.82914 9.92957 8.09105 10.463 8.19716C10.9965 8.30327 11.5494 8.24881 12.0519 8.04067C12.5544 7.83253 12.9839 7.48006 13.2861 7.02782C13.5882 6.57559 13.7495 6.0439 13.7495 5.5C13.7495 4.77066 13.4598 4.07118 12.9441 3.55546C12.4283 3.03973 11.7289 2.75 10.9995 2.75Z" fill="#DF382D"/>
</g>
<defs>
<clipPath id="clip0_484_12034">
<rect width="22" height="22" fill="white"/>
</clipPath>
</defs>
</svg>
