<svg width="60" height="18" viewBox="0 0 60 18" fill="none" xmlns="http://www.w3.org/2000/svg">
<path d="M21.2826 17.6724L24.2868 0.476871H29.0921L26.0856 17.6724H21.2826ZM43.4464 0.847556C42.4946 0.499183 41.0027 0.125336 39.1398 0.125336C34.3915 0.125336 31.0471 2.45758 31.0185 5.80015C30.9917 8.271 33.4063 9.64947 35.2289 10.4719C37.0995 11.315 37.7282 11.8524 37.7192 12.6049C37.7072 13.7577 36.2255 14.284 34.8442 14.284C32.9211 14.284 31.8993 14.0234 30.3211 13.3816L29.7017 13.1084L29.0275 16.9577C30.1499 17.4379 32.2252 17.8536 34.3803 17.8752C39.4315 17.8752 42.7106 15.5695 42.7479 12C42.7658 10.0438 41.4857 8.55534 38.7133 7.32795C37.0338 6.53247 36.0051 6.00166 36.016 5.19616C36.016 4.48141 36.8867 3.71711 38.7682 3.71711C40.3393 3.69331 41.4778 4.02754 42.3646 4.37591L42.7952 4.57434L43.4464 0.847556ZM55.812 0.476607H52.099C50.9488 0.476607 50.0879 0.782818 49.5828 1.9026L42.4463 17.6611H47.4923C47.4923 17.6611 48.3171 15.5423 48.5037 15.077C49.0551 15.077 53.957 15.0844 54.6578 15.0844C54.8015 15.6865 55.2424 17.6611 55.2424 17.6611H59.7013L55.812 0.47608V0.476607ZM49.9208 11.5805C50.3183 10.5897 51.8354 6.77351 51.8354 6.77351C51.8071 6.81927 52.2299 5.77793 52.4725 5.1323L52.7972 6.61487C52.7972 6.61487 53.7173 10.7195 53.9097 11.5802H49.9208V11.5805ZM17.2034 0.476607L12.4989 12.2032L11.9978 9.82024C11.1219 7.07313 8.39325 4.09685 5.34277 2.60682L9.64449 17.645L14.7286 17.6395L22.2937 0.476432L17.2034 0.476345" fill="white"/>
<path d="M8.10878 0.476013H0.360247L0.298828 0.833785C6.32711 2.25714 10.3158 5.69687 11.9719 9.83036L10.2871 1.92827C9.99627 0.839406 9.15262 0.514398 8.10896 0.476451" fill="white"/>
</svg>
