<svg width="32" height="29" viewBox="0 0 32 29" fill="none" xmlns="http://www.w3.org/2000/svg">
<path d="M26.7579 6.74984H7.17895C6.14909 6.74984 5.18189 6.26417 4.56842 5.45946C5.16493 4.67542 6.11385 4.1665 7.17895 4.1665H29.3684C31.9424 4.12259 31.9411 0.334129 29.3684 0.291504H7.17895C3.22139 0.291504 0 3.47805 0 7.39567V21.604C0 25.5216 3.22139 28.7082 7.17895 28.7082H26.7579C29.2771 28.7082 31.3263 26.6803 31.3263 24.1873V11.2707C31.3263 8.77775 29.2771 6.74984 26.7579 6.74984ZM27.4105 24.1873C27.4105 24.5438 27.1168 24.8332 26.7579 24.8332H7.17895C5.37899 24.8332 3.91579 23.3839 3.91579 21.604V9.84467C4.91171 10.3484 6.02771 10.6248 7.17895 10.6248H26.7579C27.1168 10.6248 27.4105 10.9142 27.4105 11.2707V24.1873ZM24.8 17.729C24.7556 20.2762 20.9273 20.2749 20.8842 17.729C20.9286 15.1818 24.7569 15.1831 24.8 17.729Z" fill="#DF382D"/>
</svg>
